<svg data-v-fde0c5aa="" xmlns="http://www.w3.org/2000/svg" viewBox="0 0 300 300" class="iconLeft"><!----><defs data-v-fde0c5aa=""><!----></defs><rect data-v-fde0c5aa="" fill="#156EAC" x="0" y="0" width="300px" height="300px" class="logo-background-square"></rect><defs data-v-fde0c5aa=""><!----></defs><g data-v-fde0c5aa="" id="110a4b13-b630-45a4-9073-749a8cb0f680" fill="#ffffff" transform="matrix(2.144192340445755,0,0,2.144192340445755,91.72378584774287,129.00835655761523)"><path d="M1.41 12.84L1.41 4.03L4.70 4.03L4.70 4.03Q6.09 4.03 6.84 4.69L6.84 4.69L6.84 4.69Q7.59 5.35 7.59 6.34L7.59 6.34L7.59 6.34Q7.59 7.10 7.17 7.66L7.17 7.66L7.17 7.66Q6.76 8.22 5.92 8.41L5.92 8.41L5.92 8.41Q6.75 8.55 7.25 9.13L7.25 9.13L7.25 9.13Q7.74 9.70 7.74 10.43L7.74 10.43L7.74 10.43Q7.74 12.05 6.16 12.63L6.16 12.63L6.16 12.63Q5.57 12.84 4.72 12.84L4.72 12.84L1.41 12.84ZM2.52 11.87L4.69 11.87L4.69 11.87Q5.70 11.87 6.13 11.47L6.13 11.47L6.13 11.47Q6.57 11.06 6.57 10.39L6.57 10.39L6.57 10.39Q6.57 9.72 6.09 9.32L6.09 9.32L6.09 9.32Q5.61 8.92 4.69 8.92L4.69 8.92L2.52 8.92L2.52 11.87ZM2.52 4.98L2.52 7.97L4.68 7.97L4.68 7.97Q5.49 7.97 5.97 7.57L5.97 7.57L5.97 7.57Q6.45 7.17 6.45 6.47L6.45 6.47L6.45 6.47Q6.45 5.77 5.99 5.38L5.99 5.38L5.99 5.38Q5.52 4.98 4.68 4.98L4.68 4.98L2.52 4.98ZM10.12 12.84L10.12 3.30L11.23 3.30L11.23 12.84L10.12 12.84ZM16.45 5.98L16.45 5.98L16.45 5.98Q17.85 5.98 18.71 6.89L18.71 6.89L18.71 6.89Q19.57 7.80 19.57 9.49L19.57 9.49L19.57 9.49Q19.57 11.17 18.71 12.08L18.71 12.08L18.71 12.08Q17.85 12.99 16.45 12.99L16.45 12.99L16.45 12.99Q15.05 12.99 14.19 12.08L14.19 12.08L14.19 12.08Q13.33 11.17 13.33 9.49L13.33 9.49L13.33 9.49Q13.33 7.80 14.19 6.89L14.19 6.89L14.19 6.89Q15.05 5.98 16.45 5.98ZM18.45 9.49L18.45 9.49L18.45 9.49Q18.45 8.29 17.95 7.61L17.95 7.61L17.95 7.61Q17.44 6.93 16.47 6.93L16.47 6.93L16.47 6.93Q15.50 6.93 14.98 7.61L14.98 7.61L14.98 7.61Q14.46 8.29 14.46 9.49L14.46 9.49L14.46 9.49Q14.46 10.68 14.95 11.36L14.95 11.36L14.95 11.36Q15.44 12.04 16.41 12.04L16.41 12.04L16.41 12.04Q17.39 12.04 17.92 11.36L17.92 11.36L17.92 11.36Q18.45 10.68 18.45 9.49ZM23.92 5.98L23.92 5.98L23.92 5.98Q25.10 5.98 25.80 6.59L25.80 6.59L25.80 6.59Q26.50 7.20 26.71 8.11L26.71 8.11L25.59 8.20L25.59 8.20Q25.41 7.62 25.00 7.29L25.00 7.29L25.00 7.29Q24.60 6.96 24.11 6.96L24.11 6.96L24.11 6.96Q23.21 6.96 22.66 7.63L22.66 7.63L22.66 7.63Q22.11 8.30 22.11 9.46L22.11 9.46L22.11 9.46Q22.11 10.61 22.64 11.31L22.64 11.31L22.64 11.31Q23.18 12.01 23.99 12.01L23.99 12.01L23.99 12.01Q24.79 12.01 25.19 11.64L25.19 11.64L25.19 11.64Q25.59 11.27 25.59 10.58L25.59 10.58L26.73 10.58L26.73 10.58Q26.73 11.66 25.98 12.33L25.98 12.33L25.98 12.33Q25.23 12.99 24.02 12.99L24.02 12.99L24.02 12.99Q22.75 12.99 21.86 12.03L21.86 12.03L21.86 12.03Q20.97 11.06 20.97 9.46L20.97 9.46L20.97 9.46Q20.97 7.85 21.85 6.92L21.85 6.92L21.85 6.92Q22.74 5.98 23.92 5.98ZM33.57 12.84L30.90 9.30L30.00 10.02L30.00 12.84L28.90 12.84L28.90 3.30L30.00 3.30L30.00 8.85L33.24 6.15L34.78 6.15L31.70 8.65L34.93 12.84L33.57 12.84ZM37.73 6.15L37.86 7.43L37.86 7.43Q38.51 5.98 40.11 5.98L40.11 5.98L40.11 5.98Q41.30 5.98 41.97 6.76L41.97 6.76L41.97 6.76Q42.63 7.55 42.63 8.90L42.63 8.90L42.63 12.84L41.54 12.84L41.54 8.90L41.54 8.90Q41.54 7.94 41.08 7.45L41.08 7.45L41.08 7.45Q40.63 6.96 39.79 6.96L39.79 6.96L39.79 6.96Q38.95 6.96 38.43 7.64L38.43 7.64L38.43 7.64Q37.91 8.33 37.88 9.55L37.88 9.55L37.88 12.84L36.78 12.84L36.78 6.15L37.73 6.15ZM47.64 5.98L47.64 5.98L47.64 5.98Q49.04 5.98 49.90 6.89L49.90 6.89L49.90 6.89Q50.76 7.80 50.76 9.49L50.76 9.49L50.76 9.49Q50.76 11.17 49.90 12.08L49.90 12.08L49.90 12.08Q49.04 12.99 47.64 12.99L47.64 12.99L47.64 12.99Q46.24 12.99 45.38 12.08L45.38 12.08L45.38 12.08Q44.52 11.17 44.52 9.49L44.52 9.49L44.52 9.49Q44.52 7.80 45.38 6.89L45.38 6.89L45.38 6.89Q46.24 5.98 47.64 5.98ZM49.64 9.49L49.64 9.49L49.64 9.49Q49.64 8.29 49.14 7.61L49.14 7.61L49.14 7.61Q48.64 6.93 47.66 6.93L47.66 6.93L47.66 6.93Q46.69 6.93 46.17 7.61L46.17 7.61L46.17 7.61Q45.65 8.29 45.65 9.49L45.65 9.49L45.65 9.49Q45.65 10.68 46.14 11.36L46.14 11.36L46.14 11.36Q46.63 12.04 47.61 12.04L47.61 12.04L47.61 12.04Q48.58 12.04 49.11 11.36L49.11 11.36L49.11 11.36Q49.64 10.68 49.64 9.49ZM52.88 12.84L52.88 3.30L53.98 3.30L53.98 12.84L52.88 12.84ZM59.21 5.98L59.21 5.98L59.21 5.98Q60.61 5.98 61.47 6.89L61.47 6.89L61.47 6.89Q62.33 7.80 62.33 9.49L62.33 9.49L62.33 9.49Q62.33 11.17 61.47 12.08L61.47 12.08L61.47 12.08Q60.61 12.99 59.21 12.99L59.21 12.99L59.21 12.99Q57.81 12.99 56.95 12.08L56.95 12.08L56.95 12.08Q56.08 11.17 56.08 9.49L56.08 9.49L56.08 9.49Q56.08 7.80 56.95 6.89L56.95 6.89L56.95 6.89Q57.81 5.98 59.21 5.98ZM61.21 9.49L61.21 9.49L61.21 9.49Q61.21 8.29 60.70 7.61L60.70 7.61L60.70 7.61Q60.20 6.93 59.23 6.93L59.23 6.93L59.23 6.93Q58.25 6.93 57.74 7.61L57.74 7.61L57.74 7.61Q57.22 8.29 57.22 9.49L57.22 9.49L57.22 9.49Q57.22 10.68 57.71 11.36L57.71 11.36L57.71 11.36Q58.20 12.04 59.17 12.04L59.17 12.04L59.17 12.04Q60.14 12.04 60.68 11.36L60.68 11.36L60.68 11.36Q61.21 10.68 61.21 9.49ZM64.72 12.63L64.72 12.63L64.72 12.63Q63.88 12.22 63.88 11.38L63.88 11.38L63.88 11.38Q63.88 10.95 64.21 10.62L64.21 10.62L64.21 10.62Q64.54 10.29 65.03 10.18L65.03 10.18L65.03 10.18Q64.27 9.51 64.27 8.41L64.27 8.41L64.27 8.41Q64.27 7.32 65.05 6.65L65.05 6.65L65.05 6.65Q65.83 5.98 66.89 5.98L66.89 5.98L66.89 5.98Q67.96 5.98 68.70 6.48L68.70 6.48L68.70 6.48Q68.80 5.74 69.29 5.29L69.29 5.29L69.29 5.29Q69.79 4.84 70.60 4.84L70.60 4.84L70.50 5.94L70.50 5.94Q69.27 5.94 69.22 6.97L69.22 6.97L69.22 6.97Q69.71 7.57 69.71 8.41L69.71 8.41L69.71 8.41Q69.71 9.49 68.93 10.19L68.93 10.19L68.93 10.19Q68.15 10.88 66.99 10.88L66.99 10.88L66.99 10.88Q66.19 10.88 65.58 10.56L65.58 10.56L65.58 10.56Q65.30 10.61 65.07 10.82L65.07 10.82L65.07 10.82Q64.85 11.02 64.85 11.37L64.85 11.37L64.85 11.37Q64.85 12.11 66.08 12.11L66.08 12.11L68.68 12.11L68.68 12.11Q69.62 12.11 70.17 12.51L70.17 12.51L70.17 12.51Q70.71 12.91 70.71 13.62L70.71 13.62L70.71 13.62Q70.71 14.69 69.64 15.48L69.64 15.48L69.64 15.48Q68.57 16.28 66.93 16.28L66.93 16.28L66.93 16.28Q65.30 16.28 64.36 15.67L64.36 15.67L64.36 15.67Q63.42 15.06 63.42 14.14L63.42 14.14L63.42 14.14Q63.42 13.54 63.78 13.16L63.78 13.16L63.78 13.16Q64.13 12.78 64.72 12.63ZM64.51 14.10L64.51 14.10L64.51 14.10Q64.51 14.63 65.09 15.02L65.09 15.02L65.09 15.02Q65.67 15.40 66.86 15.40L66.86 15.40L66.86 15.40Q68.04 15.40 68.83 14.89L68.83 14.89L68.83 14.89Q69.62 14.38 69.62 13.69L69.62 13.69L69.62 13.69Q69.62 13.37 69.39 13.14L69.39 13.14L69.39 13.14Q69.16 12.91 68.68 12.91L68.68 12.91L65.98 12.91L65.98 12.91Q65.27 12.94 64.89 13.25L64.89 13.25L64.89 13.25Q64.51 13.57 64.51 14.10ZM68.63 8.41L68.63 8.41L68.63 8.41Q68.63 7.69 68.19 7.23L68.19 7.23L68.19 7.23Q67.76 6.78 67.00 6.78L67.00 6.78L67.00 6.78Q66.23 6.78 65.80 7.23L65.80 7.23L65.80 7.23Q65.37 7.69 65.37 8.41L65.37 8.41L65.37 8.41Q65.37 9.14 65.81 9.61L65.81 9.61L65.81 9.61Q66.25 10.08 67.00 10.08L67.00 10.08L67.00 10.08Q67.76 10.08 68.19 9.60L68.19 9.60L68.19 9.60Q68.63 9.13 68.63 8.41ZM71.08 4.03L72.39 4.03L74.76 8.08L77.18 4.03L78.48 4.03L75.32 9.23L75.32 12.84L74.20 12.84L74.20 9.23L71.08 4.03Z"></path></g><defs data-v-fde0c5aa=""><!----></defs><g data-v-fde0c5aa="" id="5c34d71a-f876-46e7-b230-1321b11c94ef" stroke="none" fill="#F6575E" transform="matrix(0.8148406672321912,0,0,0.8148406672321912,34.79755765282245,123.92476061328179)"><path clip-rule="evenodd" d="M32.147 40.618v8.068a.26.26 0 0 1-.26.26c-.117 0-.234-.117-.234-.26v-8.068h.494zM31.888 14.877c.143 0 .26.119.26.238v8.28h-.494v-8.28c0-.119.117-.238.234-.238z"></path><path clip-rule="evenodd" d="M31.912 12.502a2.368 2.368 0 0 1 2.375 2.375 2.369 2.369 0 0 1-2.375 2.377 2.37 2.37 0 0 1-2.377-2.377 2.369 2.369 0 0 1 2.377-2.375zM32.076 46.735c1.319 0 2.376 1.081 2.376 2.399a2.384 2.384 0 0 1-2.376 2.377 2.385 2.385 0 0 1-2.375-2.377c0-1.319 1.059-2.399 2.375-2.399zM40.616 31.864h8.07c.143 0 .26.095.26.236a.26.26 0 0 1-.26.259h-8.07v-.353-.142zM14.877 32.1c0-.141.117-.236.236-.236h8.28v.496h-8.28c-.118-.001-.236-.117-.236-.26z"></path><path clip-rule="evenodd" d="M12.502 32.076c0-1.317 1.059-2.375 2.375-2.375s2.375 1.059 2.375 2.375c0 1.318-1.059 2.377-2.375 2.377s-2.375-1.058-2.375-2.377zM46.733 31.912c0-1.317 1.083-2.375 2.401-2.375a2.384 2.384 0 0 1 2.375 2.375 2.385 2.385 0 0 1-2.375 2.377c-1.318 0-2.401-1.059-2.401-2.377zM38.193 37.983l5.717 5.716a.254.254 0 0 1 0 .353.257.257 0 0 1-.352 0l-5.718-5.716.353-.353zM19.819 19.961a.254.254 0 0 1 .353 0l5.833 5.857c-.117.119-.234.236-.329.353l-5.857-5.859a.252.252 0 0 1 0-.351z"></path><path clip-rule="evenodd" d="M18.147 18.266c.942-.918 2.447-.918 3.365 0 .942.942.942 2.447 0 3.365-.918.941-2.423.941-3.365 0-.916-.919-.916-2.423 0-3.365zM42.477 42.359c.939-.918 2.446-.918 3.362 0 .942.94.942 2.447 0 3.363-.916.942-2.423.942-3.362 0-.918-.916-.918-2.423 0-3.363zM37.981 25.818l5.719-5.716a.254.254 0 0 1 .353 0 .256.256 0 0 1 0 .351l-5.719 5.718c-.117-.117-.235-.233-.353-.353zM19.959 44.193a.254.254 0 0 1 0-.353l5.859-5.857c.117.117.234.236.353.353l-5.859 5.857a.258.258 0 0 1-.353 0z"></path><path clip-rule="evenodd" d="M18.266 45.841c-.918-.918-.918-2.425 0-3.365.942-.918 2.447-.918 3.365 0a2.36 2.36 0 0 1 0 3.365c-.918.939-2.423.939-3.365 0zM42.357 21.512c-.918-.916-.918-2.423 0-3.363.941-.918 2.446-.918 3.365 0 .941.94.941 2.447 0 3.363-.918.944-2.423.944-3.365 0zM28.995 37.134l-2.895 4.8c-.047.071-.165.095-.236.047-.069-.047-.093-.165-.046-.236l2.893-4.776c.071.047.141.095.212.119.024.024.048.046.072.046zM38.076 21.843c.096.046.117.141.069.234l-2.964 4.872c-.046 0-.069-.024-.093-.048-.072-.047-.142-.071-.213-.119l2.965-4.894c.048-.069.165-.093.236-.045z"></path><path clip-rule="evenodd" d="M38.947 20.431a1.642 1.642 0 0 1 .541 2.258 1.648 1.648 0 0 1-2.261.563 1.638 1.638 0 0 1-.539-2.256 1.649 1.649 0 0 1 2.259-.565zM26.76 40.759a1.648 1.648 0 0 1 .563 2.258 1.642 1.642 0 0 1-2.259.542 1.647 1.647 0 0 1-.565-2.258 1.644 1.644 0 0 1 2.261-.542zM37.135 34.995l4.8 2.917c.072.047.094.141.048.236-.048.071-.164.093-.235.047L36.97 35.3c.048-.072.096-.141.117-.212.024-.024.048-.046.048-.093zM21.841 25.912c.047-.069.143-.093.236-.046l4.87 2.964c0 .024-.024.048-.045.093-.048.048-.072.119-.119.212l-4.894-2.988c-.07-.047-.094-.14-.048-.235z"></path><path clip-rule="evenodd" d="M20.431 25.065a1.646 1.646 0 1 1 .564 2.258 1.646 1.646 0 0 1-.564-2.258zM40.757 37.229a1.647 1.647 0 0 1 2.261-.542 1.641 1.641 0 0 1 .541 2.258 1.642 1.642 0 0 1-2.26.542 1.641 1.641 0 0 1-.542-2.258zM33.512 37.771l1.341 5.411c.023.093-.046.188-.141.212-.071.021-.165-.024-.188-.119l-1.341-5.435c.117-.022.213-.046.329-.069zM29.112 20.526c.093-.026.188.021.212.115l1.364 5.554a2.001 2.001 0 0 0-.353.093l-1.34-5.576c-.024-.092.022-.164.117-.186z"></path><path clip-rule="evenodd" d="M28.735 18.926c.871-.236 1.765.305 1.977 1.199.234.871-.307 1.763-1.199 1.975a1.607 1.607 0 0 1-1.977-1.2c-.236-.869.305-1.764 1.199-1.974zM34.476 41.887c.895-.21 1.789.33 2.001 1.202.212.893-.329 1.787-1.2 1.999-.894.212-1.788-.33-2-1.2-.213-.895.328-1.789 1.199-2.001zM37.77 30.478l5.411-1.319c.095-.023.188.024.212.119.023.093-.024.187-.117.21l-5.435 1.341a21.807 21.807 0 0 1-.071-.351zM20.524 34.899c-.024-.093.024-.186.117-.21l5.554-1.366c.024.117.045.212.093.329l-5.576 1.366c-.092.024-.164-.023-.188-.119z"></path><path clip-rule="evenodd" d="M18.924 35.276a1.62 1.62 0 0 1 1.2-1.999 1.644 1.644 0 0 1 1.977 1.199 1.622 1.622 0 0 1-1.199 1.999 1.644 1.644 0 0 1-1.978-1.199zM41.888 29.512a1.644 1.644 0 0 1 1.199-1.977 1.624 1.624 0 0 1 2.001 1.201 1.643 1.643 0 0 1-1.2 1.975 1.62 1.62 0 0 1-2-1.199zM32.687 28.666l.708-3.107c0-.045.045-.093.116-.069.046 0 .069.047.069.117l-.706 3.107c-.048 0-.093-.024-.141-.024.001-.024-.022-.024-.046-.024zM30.571 38.617c-.047-.023-.095-.069-.071-.117l.706-3.2c.023.023.023.023.047.023.045 0 .093.024.141.024l-.706 3.2a.129.129 0 0 1-.117.07z"></path><path clip-rule="evenodd" d="M30.359 39.535a.974.974 0 0 1-.73-1.13.94.94 0 0 1 1.13-.706.905.905 0 0 1 .704 1.106c-.092.518-.61.823-1.104.73zM33.23 26.312a.945.945 0 0 1-.708-1.128.946.946 0 0 1 1.131-.706.945.945 0 0 1 .705 1.128.945.945 0 0 1-1.128.706zM28.664 31.325l-3.105-.706c-.069 0-.093-.071-.069-.119 0-.045.046-.093.117-.069l3.105.682c0 .048-.022.095-.022.141-.026.023-.026.047-.026.071zM38.618 33.44a.131.131 0 0 1-.119.071l-3.2-.706c.023-.024.023-.047.023-.069 0-.047.023-.095.023-.119l3.201.706c.048 0 .072.072.072.117z"></path><path clip-rule="evenodd" d="M39.534 33.652c-.117.496-.635.825-1.129.706a.927.927 0 0 1-.705-1.128.92.92 0 0 1 1.106-.706.959.959 0 0 1 .728 1.128zM26.313 30.759a.928.928 0 0 1-1.13.706.924.924 0 0 1-.706-1.106.963.963 0 0 1 1.13-.729c.493.118.822.636.706 1.129zM30.123 29.159l-1.693-2.707c-.047-.023-.023-.093.024-.117.048-.048.093-.024.141.024l1.695 2.704c-.048.025-.095.049-.167.096zM35.653 37.699c-.048.024-.095 0-.119-.045L33.771 34.9c.069-.023.117-.069.163-.093l1.767 2.752c.022.047 0 .095-.048.14z"></path><path clip-rule="evenodd" d="M36.147 38.477a.928.928 0 0 1-1.295-.282c-.281-.424-.141-1.013.306-1.294.424-.282 1.013-.141 1.294.281a.923.923 0 0 1-.305 1.295zM28.852 27.113a.947.947 0 0 1-1.292-.306c-.284-.424-.143-1.013.281-1.294a.946.946 0 0 1 1.295.281.952.952 0 0 1-.284 1.319zM29.16 33.865l-2.707 1.717c-.024.024-.093.024-.117-.021-.047-.048-.023-.119.024-.143l2.705-1.717c.023.07.047.118.095.164zM37.7 28.336c.023.046 0 .117-.048.141L34.9 30.218c-.024-.048-.071-.095-.094-.165l2.752-1.741c.046-.023.094-.023.142.024z"></path><path clip-rule="evenodd" d="M38.477 27.843a.92.92 0 0 1-.283 1.293.927.927 0 0 1-1.295-.282.945.945 0 0 1 .284-1.295c.445-.281 1.034-.141 1.294.284zM27.111 35.159a.955.955 0 0 1-.305 1.295c-.424.282-1.011.141-1.295-.307-.282-.422-.141-1.011.284-1.293a.953.953 0 0 1 1.316.305zM37.442 42.523l4.915 9.952c.095.165.023.377-.141.47a.38.38 0 0 1-.47-.165l-4.918-9.952c.141-.069.282-.141.425-.212.07-.021.118-.071.189-.093zM21.419 10.949c.165-.071.376 0 .446.165l5.058 10.188a.693.693 0 0 0-.188.095l-.422.21-5.037-10.188c-.093-.164-.022-.375.143-.47z"></path><path clip-rule="evenodd" d="M20.007 8.033A3.267 3.267 0 0 1 22.9 13.89a3.26 3.26 0 0 1-4.376-1.481 3.26 3.26 0 0 1 1.483-4.376zM41.112 50.122a3.267 3.267 0 1 1 2.893 5.859 3.26 3.26 0 0 1-4.376-1.483 3.259 3.259 0 0 1 1.483-4.376zM42.523 26.572l9.952-4.941a.381.381 0 0 1 .47.165c.07.165 0 .376-.164.446l-9.952 4.941a8.226 8.226 0 0 1-.212-.446c-.023-.048-.071-.117-.094-.165zM10.95 42.571c-.071-.167 0-.354.165-.448l10.188-5.035c.022.046.045.117.093.165.069.141.141.282.21.422L11.42 42.736c-.165.093-.377.023-.47-.165z"></path><path clip-rule="evenodd" d="M8.031 44.004a3.26 3.26 0 0 1 1.483-4.376 3.268 3.268 0 1 1-1.483 4.376zM50.122 22.902a3.258 3.258 0 0 1 1.483-4.376 3.267 3.267 0 0 1 2.893 5.857 3.26 3.26 0 0 1-4.376-1.481zM43.275 35.605l10.541 3.553c.164.047.26.258.212.424-.071.187-.26.282-.424.21L43.063 36.24c.072-.21.141-.423.212-.635zM9.631 24.595a.386.386 0 0 1 .448-.212l10.774 3.646a3.44 3.44 0 0 0-.212.636L9.867 25.041a.37.37 0 0 1-.236-.446z"></path><path clip-rule="evenodd" d="M6.55 23.536a3.276 3.276 0 0 1 4.164-2.046c1.693.563 2.612 2.423 2.046 4.14-.587 1.717-2.447 2.635-4.14 2.048a3.285 3.285 0 0 1-2.07-4.142zM51.25 38.381a3.246 3.246 0 0 1 4.143-2.046 3.241 3.241 0 0 1 2.046 4.14c-.563 1.695-2.423 2.613-4.14 2.048-1.717-.588-2.636-2.446-2.049-4.142zM35.605 20.712l3.554-10.517a.314.314 0 0 1 .422-.21c.188.045.282.234.213.422L36.24 20.949c-.212-.095-.422-.165-.635-.237zM24.595 54.357c-.165-.046-.26-.258-.212-.422l3.646-10.777c.212.072.424.141.635.212l-3.623 10.776a.339.339 0 0 1-.446.211z"></path><path clip-rule="evenodd" d="M23.537 57.44a3.242 3.242 0 0 1-2.046-4.142 3.24 3.24 0 0 1 4.14-2.046 3.241 3.241 0 0 1 2.046 4.14c-.588 1.717-2.424 2.635-4.14 2.048zM38.382 12.76c-1.717-.587-2.635-2.445-2.046-4.14.563-1.717 2.423-2.635 4.14-2.07 1.693.587 2.611 2.447 2.048 4.166a3.3 3.3 0 0 1-4.142 2.044z"></path></g><!----></svg>